<svg width="514" height="165" viewBox="0 0 514 165" fill="none" xmlns="http://www.w3.org/2000/svg">
<circle cx="101" cy="22.5" r="20" stroke="#667085" stroke-width="2"/>
<circle cx="101" cy="142.5" r="20" stroke="#667085" stroke-width="2"/>
<circle cx="21" cy="102.5" r="20" stroke="#667085" stroke-width="2"/>
<circle cx="141" cy="102.5" r="20" stroke="#667085" stroke-width="2"/>
<circle cx="193" cy="82.5001" r="20" stroke="#667085" stroke-width="2"/>
<circle cx="313" cy="82.5001" r="20" stroke="#667085" stroke-width="2"/>
<circle cx="253" cy="22.5" r="20" stroke="#667085" stroke-width="2"/>
<circle cx="253" cy="142.5" r="20" stroke="#667085" stroke-width="2"/>
<path d="M1 102.5C1 91.4544 9.9543 82.5001 21 82.5001H141C152.046 82.5001 161 91.4544 161 102.5C161 113.546 152.046 122.5 141 122.5H21C9.9543 122.5 1 113.546 1 102.5Z" stroke="#667085" stroke-width="2"/>
<path d="M101 162.5C89.9543 162.5 81 153.546 81 142.5L81 22.5001C81 11.4544 89.9543 2.50006 101 2.50006C112.046 2.50006 121 11.4544 121 22.5001L121 142.5C121 153.546 112.046 162.5 101 162.5Z" stroke="#667085" stroke-width="2"/>
<path d="M7.14214 116.495C-0.668351 108.684 -0.668351 96.0212 7.14214 88.2107L86.7107 8.64216C94.5212 0.831675 107.184 0.831668 114.995 8.64215C122.805 16.4526 122.805 29.1159 114.995 36.9264L35.4264 116.495C27.6159 124.305 14.9526 124.305 7.14214 116.495Z" stroke="#667085" stroke-width="2"/>
<circle cx="453" cy="22.5" r="20" stroke="#667085" stroke-width="2"/>
<circle cx="453" cy="142.5" r="20" stroke="#667085" stroke-width="2"/>
<circle cx="373" cy="102.5" r="20" stroke="#667085" stroke-width="2"/>
<circle cx="493" cy="102.5" r="20" stroke="#667085" stroke-width="2"/>
<path d="M353 102.5C353 91.4544 361.954 82.5001 373 82.5001H493C504.046 82.5001 513 91.4544 513 102.5C513 113.546 504.046 122.5 493 122.5H373C361.954 122.5 353 113.546 353 102.5Z" stroke="#667085" stroke-width="2"/>
<path d="M453 162.5C441.954 162.5 433 153.546 433 142.5L433 22.5001C433 11.4544 441.954 2.50006 453 2.50006C464.046 2.50006 473 11.4544 473 22.5001L473 142.5C473 153.546 464.046 162.5 453 162.5Z" stroke="#667085" stroke-width="2"/>
<path d="M359.142 116.495C351.332 108.684 351.332 96.0212 359.142 88.2107L438.711 8.64216C446.521 0.831675 459.184 0.831668 466.995 8.64215C474.805 16.4526 474.805 29.1159 466.995 36.9264L387.426 116.495C379.616 124.305 366.953 124.305 359.142 116.495Z" stroke="#667085" stroke-width="2"/>
<circle cx="253" cy="82.5" r="80" stroke="#667085" stroke-width="2"/>
<circle cx="253" cy="82.5001" r="40" stroke="#667085" stroke-width="2"/>
<line x1="8.74228e-08" y1="1.5" x2="513" y2="1.50004" stroke="#667085" stroke-width="2"/>
<line x1="-8.74228e-08" y1="163.5" x2="513" y2="163.5" stroke="#667085" stroke-width="2"/>
</svg>
